<svg version="1.1" id="Layer_1" class="site-header__logo-image" xmlns="http://www.w3.org/2000/svg" xmlns:xlink="http://www.w3.org/1999/xlink" x="0px" y="0px" width="224px" height="216px" viewBox="0 0 224 216" enable-background="new 0 0 224 216" xml:space="preserve">
<g id="symbols">
	<g id="logo_x2F_logo-vert">
		<g id="logo">
			<path id="path-1_1_" d="M170.715,8.074c-0.041,0.262-4.111,26.056-4.111,40.984l-0.014,47.192     c0.019,0.473,0.019,0.945,0.019,1.416c0,29.961-24.494,54.334-54.598,54.334s-54.598-24.373-54.598-54.334L57.396,49.06     c0-14.942-4.07-40.716-4.111-40.986L52,0l8.143,1.101c5.452,0.802,10.856,1.909,16.185,3.31     c12.135,3.185,20.997,7.262,26.346,12.115c3.653,3.377,6.794,7.262,9.325,11.538c2.533-4.276,5.676-8.16,9.329-11.538     c5.345-4.852,14.211-8.93,26.346-12.115c5.328-1.401,10.733-2.508,16.185-3.31L172,0L170.715,8.074z M118.714,43.754v-0.004     c14.003,1.733,26.786,8.797,35.669,19.706V49.07c0-10.466,1.772-25.267,3.032-34.47c-9.236,1.96-22.002,5.607-27.853,10.916     C127.303,27.566,120.751,34.204,118.714,43.754z M112.01,139.84c23.365,0,42.378-18.919,42.391-42.174h-0.021v-1.217     c-0.592-20.639-16.162-37.614-36.248-40.513v41.61v0.295v0.01c-0.002,3.357-2.738,6.078-6.114,6.076     c-3.373-0.002-6.108-2.727-6.105-6.086v-0.295V49.502h-0.019v-0.624c-0.292-12.282-8.813-20.971-11.456-23.37     c-5.867-5.323-18.623-8.972-27.855-10.922c1.262,9.208,3.034,24.01,3.034,34.472l0.016,48.608     C69.634,120.922,88.643,139.84,112.01,139.84z M0,172.707h22.325c7.063,0,11.612,4.144,11.612,10.839     c0,5.356-3.598,8.99-7.383,9.754c4.479,0.702,8.203,5.421,8.203,10.457c0,7.078-4.543,11.478-12.053,11.478H0V172.707z      M22.136,211.92c5.553,0,8.833-3.252,8.833-8.417c0-4.336-2.965-8.416-8.833-8.416H3.597v16.833H22.136z M21.884,191.771     c5.427,0,8.262-3.444,8.262-7.842c0-4.337-2.839-7.906-8.262-7.906H3.597v15.756L21.884,191.771z M46.202,172.707h32.242v3.316     H49.792v15.756h26.101v3.316H49.799v16.833H78.45v3.315H46.202V172.707z M103.265,197.829L87.05,172.707h10.222l10.475,17.087     l10.348-17.087h10.221l-16.088,25.122v17.406h-8.961V197.829z M154.729,172c12.745,0,22.022,9.181,22.022,21.998     c0,12.816-9.277,21.997-22.022,21.997c-12.682,0-21.958-9.181-21.958-21.997C132.771,181.181,142.047,172,154.729,172z      M154.729,180.034c-7.762,0-12.745,5.992-12.745,13.963c0,7.905,4.983,13.963,12.745,13.963c7.762,0,12.81-6.06,12.81-13.963     c0-7.965-5.042-13.958-12.81-13.958V180.034z M186.395,172.707h9.086v25.249c0,5.925,3.218,10.009,9.78,10.009     c6.435,0,9.655-4.08,9.655-10.009v-25.249H224v25.504c0,10.585-5.996,17.789-18.74,17.789c-12.871,0-18.865-7.272-18.865-17.726     V172.707z"/>
		</g>
	</g>
</g>
</svg>