<svg class="svg-icon" style="width: 1em; height: 1em;vertical-align: middle;fill: currentColor;overflow: hidden;" viewBox="0 0 1024 1024" version="1.1" xmlns="http://www.w3.org/2000/svg"><path d="M917.333333 981.333333 106.666667 981.333333c-47.125333 0-85.333333-38.208-85.333333-85.333333l85.333333-512c14.464-73.429333 56.917333-85.333333 104.042667-85.333333l56.576 0C299.456 150.442667 396.842667 42.666667 512 42.666667s212.544 107.776 244.714667 256l56.576 0c47.125333 0 89.578667 11.904 104.042667 85.333333l85.333333 512C1002.666667 943.125333 964.458667 981.333333 917.333333 981.333333zM512 85.333333c-92.842667 0-171.626667 89.130667-200.917333 213.333333l401.856 0C683.626667 174.464 604.864 85.333333 512 85.333333zM874.666667 384c-6.570667-28.821333-20.416-42.666667-50.56-42.666667l-60.330667 0C766.4 362.154667 768 383.466667 768 405.333333c0 11.776-9.536 21.333333-21.333333 21.333333s-21.333333-9.557333-21.333333-21.333333c0-21.909333-1.472-43.328-4.288-64L302.954667 341.333333C300.16 362.005333 298.666667 383.424 298.666667 405.333333c0 11.776-9.536 21.333333-21.333333 21.333333s-21.333333-9.557333-21.333333-21.333333c0-21.866667 1.6-43.178667 4.202667-64L199.872 341.333333C169.749333 341.333333 155.925333 355.178667 149.333333 384L64 896c0 23.552 19.114667 42.666667 42.666667 42.666667l810.666667 0c23.552 0 42.666667-19.114667 42.666667-42.666667L874.666667 384z"  /></svg>